<svg width="82" height="82" viewBox="0 0 82 82" fill="none" xmlns="http://www.w3.org/2000/svg">
<path d="M41.0003 0.166504C35.638 0.166504 30.3282 1.22269 25.3741 3.27476C20.42 5.32682 15.9185 8.33458 12.1268 12.1263C4.46906 19.784 0.166992 30.1702 0.166992 40.9998C0.166992 51.8295 4.46906 62.2156 12.1268 69.8734C15.9185 73.6651 20.42 76.6729 25.3741 78.7249C30.3282 80.777 35.638 81.8332 41.0003 81.8332C51.83 81.8332 62.2161 77.5311 69.8738 69.8734C77.5316 62.2156 81.8336 51.8295 81.8336 40.9998C81.8336 35.6375 80.7775 30.3277 78.7254 25.3736C76.6733 20.4195 73.6656 15.918 69.8738 12.1263C66.0821 8.33458 61.5807 5.32682 56.6266 3.27476C51.6724 1.22269 46.3626 0.166504 41.0003 0.166504ZM58.1503 58.1498L36.917 45.0832V20.5832H43.042V41.8165L61.417 52.8415L58.1503 58.1498Z" fill="#171717"/>
</svg>
