<svg width="100" height="32" viewBox="0 0 100 32" fill="none" xmlns="http://www.w3.org/2000/svg">
<path d="M4.80439 2.96296C4.80439 4.57142 3.70625 5.92591 2.4022 5.92591C1.09815 5.92591 0 4.57142 0 2.96296C0 1.35449 1.09815 0 2.4022 0C3.70625 0 4.80439 1.35449 4.80439 2.96296Z" fill="#171717"/>
<path d="M14.3444 2.96296C14.3444 4.57142 13.2463 5.92591 11.9422 5.92591C10.6382 5.92591 9.54004 4.57142 9.54004 2.96296C9.54004 1.35449 10.6382 0 11.9422 0C13.2463 0 14.3444 1.35449 14.3444 2.96296Z" fill="#171717"/>
<path d="M23.8161 2.96296C23.8161 4.57142 22.718 5.92591 21.4139 5.92591C20.1099 5.92591 19.0117 4.57142 19.0117 2.96296C19.0117 1.35449 20.1099 0 21.4139 0C22.718 0 23.8161 1.35449 23.8161 2.96296Z" fill="#171717"/>
<path d="M33.3561 2.96296C33.3561 4.57142 32.258 5.92591 30.954 5.92591C29.6499 5.92591 28.5518 4.57142 28.5518 2.96296C28.5518 1.35449 29.6499 0 30.954 0C32.258 0 33.3561 1.35449 33.3561 2.96296Z" fill="#171717"/>
<path d="M42.8962 2.96296C42.8962 4.57142 41.798 5.92591 40.494 5.92591C39.1899 5.92591 38.0918 4.57142 38.0918 2.96296C38.0918 1.35449 39.1899 0 40.494 0C41.798 0 42.8962 1.35449 42.8962 2.96296Z" fill="#171717"/>
<path d="M52.3679 2.96296C52.3679 4.57142 51.2697 5.92591 49.9657 5.92591C48.6616 5.92591 47.5635 4.57142 47.5635 2.96296C47.5635 1.35449 48.6616 0 49.9657 0C51.2697 0 52.3679 1.35449 52.3679 2.96296Z" fill="#171717"/>
<path d="M61.9079 2.96296C61.9079 4.57142 60.8098 5.92591 59.5057 5.92591C58.2017 5.92591 57.1035 4.57142 57.1035 2.96296C57.1035 1.35449 58.2017 0 59.5057 0C60.8098 0 61.9079 1.35449 61.9079 2.96296Z" fill="#171717"/>
<path d="M71.4479 2.96296C71.4479 4.57142 70.3498 5.92591 69.0458 5.92591C67.7417 5.92591 66.6436 4.57142 66.6436 2.96296C66.6436 1.35449 67.7417 0 69.0458 0C70.3498 0 71.4479 1.35449 71.4479 2.96296Z" fill="#171717"/>
<path d="M80.9196 2.96296C80.9196 4.57142 79.8215 5.92591 78.5174 5.92591C77.2134 5.92591 76.1152 4.57142 76.1152 2.96296C76.1152 1.35449 77.2134 0 78.5174 0C79.8901 0 80.9196 1.35449 80.9196 2.96296Z" fill="#171717"/>
<path d="M90.4597 2.96296C90.4597 4.57142 89.3615 5.92591 88.0575 5.92591C86.7534 5.92591 85.6553 4.57142 85.6553 2.96296C85.6553 1.35449 86.7534 0 88.0575 0C89.3615 0 90.4597 1.35449 90.4597 2.96296Z" fill="#171717"/>
<path d="M99.9997 2.96296C99.9997 4.57142 98.9016 5.92591 97.5975 5.92591C96.2935 5.92591 95.1953 4.57142 95.1953 2.96296C95.1953 1.35449 96.2935 0 97.5975 0C98.9016 0 99.9997 1.35449 99.9997 2.96296Z" fill="#171717"/>
<path d="M4.80439 16.0001C4.80439 17.6085 3.70625 18.963 2.4022 18.963C1.09815 18.963 0 17.6085 0 16.0001C0 14.3916 1.09815 13.0371 2.4022 13.0371C3.70625 13.0371 4.80439 14.3069 4.80439 16.0001Z" fill="#171717"/>
<path d="M14.3444 16.0001C14.3444 17.6085 13.2463 18.963 11.9422 18.963C10.6382 18.963 9.54004 17.6085 9.54004 16.0001C9.54004 14.3916 10.6382 13.0371 11.9422 13.0371C13.2463 13.0371 14.3444 14.3069 14.3444 16.0001Z" fill="#171717"/>
<path d="M23.8161 16.0001C23.8161 17.6085 22.718 18.963 21.4139 18.963C20.1099 18.963 19.0117 17.6085 19.0117 16.0001C19.0117 14.3916 20.1099 13.0371 21.4139 13.0371C22.718 13.0371 23.8161 14.3069 23.8161 16.0001Z" fill="#171717"/>
<path d="M33.3561 16.0001C33.3561 17.6085 32.258 18.963 30.954 18.963C29.6499 18.963 28.5518 17.6085 28.5518 16.0001C28.5518 14.3916 29.6499 13.0371 30.954 13.0371C32.258 13.0371 33.3561 14.3069 33.3561 16.0001Z" fill="#171717"/>
<path d="M42.8962 16.0001C42.8962 17.6085 41.798 18.963 40.494 18.963C39.1899 18.963 38.0918 17.6085 38.0918 16.0001C38.0918 14.3916 39.1899 13.0371 40.494 13.0371C41.798 13.0371 42.8962 14.3069 42.8962 16.0001Z" fill="#171717"/>
<path d="M52.3679 16.0001C52.3679 17.6085 51.2697 18.963 49.9657 18.963C48.6616 18.963 47.5635 17.6085 47.5635 16.0001C47.5635 14.3916 48.6616 13.0371 49.9657 13.0371C51.2697 13.0371 52.3679 14.3069 52.3679 16.0001Z" fill="#171717"/>
<path d="M61.9079 16.0001C61.9079 17.6085 60.8098 18.963 59.5057 18.963C58.2017 18.963 57.1035 17.6085 57.1035 16.0001C57.1035 14.3916 58.2017 13.0371 59.5057 13.0371C60.8098 13.0371 61.9079 14.3069 61.9079 16.0001Z" fill="#171717"/>
<path d="M71.4479 16.0001C71.4479 17.6085 70.3498 18.963 69.0458 18.963C67.7417 18.963 66.6436 17.6085 66.6436 16.0001C66.6436 14.3916 67.7417 13.0371 69.0458 13.0371C70.3498 13.0371 71.4479 14.3069 71.4479 16.0001Z" fill="#171717"/>
<path d="M80.9196 16.0001C80.9196 17.6085 79.8215 18.963 78.5174 18.963C77.2134 18.963 76.1152 17.6085 76.1152 16.0001C76.1152 14.3916 77.2134 13.0371 78.5174 13.0371C79.8901 13.0371 80.9196 14.3069 80.9196 16.0001Z" fill="#171717"/>
<path d="M90.4597 16.0001C90.4597 17.6085 89.3615 18.963 88.0575 18.963C86.7534 18.963 85.6553 17.6085 85.6553 16.0001C85.6553 14.3916 86.7534 13.0371 88.0575 13.0371C89.3615 13.0371 90.4597 14.3069 90.4597 16.0001Z" fill="#171717"/>
<path d="M99.9997 16.0001C99.9997 17.6085 98.9016 18.963 97.5975 18.963C96.2935 18.963 95.1953 17.6085 95.1953 16.0001C95.1953 14.3916 96.2935 13.0371 97.5975 13.0371C98.9016 13.0371 99.9997 14.3069 99.9997 16.0001Z" fill="#171717"/>
<path d="M4.80439 29.037C4.80439 30.6455 3.70625 32 2.4022 32C1.09815 32 0 30.6455 0 29.037C0 27.4286 1.09815 26.0741 2.4022 26.0741C3.70625 25.9894 4.80439 27.3439 4.80439 29.037Z" fill="#171717"/>
<path d="M14.3444 29.0372C14.3444 30.6456 13.2463 32.0001 11.9422 32.0001C10.6382 32.0001 9.54004 30.6456 9.54004 29.0372C9.54004 27.4287 10.6382 26.0742 11.9422 26.0742C13.2463 26.0742 14.3444 27.3441 14.3444 29.0372Z" fill="#171717"/>
<path d="M23.8161 29.037C23.8161 30.6455 22.718 32 21.4139 32C20.1099 32 19.0117 30.6455 19.0117 29.037C19.0117 27.4286 20.1099 26.0741 21.4139 26.0741C22.718 25.9894 23.8161 27.3439 23.8161 29.037Z" fill="#171717"/>
<path d="M33.3561 29.037C33.3561 30.6455 32.258 32 30.954 32C29.6499 32 28.5518 30.6455 28.5518 29.037C28.5518 27.4286 29.6499 26.0741 30.954 26.0741C32.258 25.9894 33.3561 27.3439 33.3561 29.037Z" fill="#171717"/>
<path d="M42.8962 29.0372C42.8962 30.6456 41.798 32.0001 40.494 32.0001C39.1899 32.0001 38.0918 30.6456 38.0918 29.0372C38.0918 27.4287 39.1899 26.0742 40.494 26.0742C41.798 26.0742 42.8962 27.3441 42.8962 29.0372Z" fill="#171717"/>
<path d="M52.3679 29.0372C52.3679 30.6456 51.2697 32.0001 49.9657 32.0001C48.6616 32.0001 47.5635 30.6456 47.5635 29.0372C47.5635 27.4287 48.6616 26.0742 49.9657 26.0742C51.2697 26.0742 52.3679 27.3441 52.3679 29.0372Z" fill="#171717"/>
<path d="M61.9079 29.0372C61.9079 30.6456 60.8098 32.0001 59.5057 32.0001C58.2017 32.0001 57.1035 30.6456 57.1035 29.0372C57.1035 27.4287 58.2017 26.0742 59.5057 26.0742C60.8098 26.0742 61.9079 27.3441 61.9079 29.0372Z" fill="#171717"/>
<path d="M71.4479 29.0372C71.4479 30.6456 70.3498 32.0001 69.0458 32.0001C67.7417 32.0001 66.6436 30.6456 66.6436 29.0372C66.6436 27.4287 67.7417 26.0742 69.0458 26.0742C70.3498 26.0742 71.4479 27.3441 71.4479 29.0372Z" fill="#171717"/>
<path d="M80.9196 29.037C80.9196 30.6455 79.8215 32 78.5174 32C77.2134 32 76.1152 30.6455 76.1152 29.037C76.1152 27.4286 77.2134 26.0741 78.5174 26.0741C79.8901 25.9894 80.9196 27.3439 80.9196 29.037Z" fill="#171717"/>
<path d="M90.4597 29.037C90.4597 30.6455 89.3615 32 88.0575 32C86.7534 32 85.6553 30.6455 85.6553 29.037C85.6553 27.4286 86.7534 26.0741 88.0575 26.0741C89.3615 25.9894 90.4597 27.3439 90.4597 29.037Z" fill="#171717"/>
<path d="M99.9997 29.037C99.9997 30.6455 98.9016 32 97.5975 32C96.2935 32 95.1953 30.6455 95.1953 29.037C95.1953 27.4286 96.2935 26.0741 97.5975 26.0741C98.9016 25.9894 99.9997 27.3439 99.9997 29.037Z" fill="#171717"/>
</svg>
