<svg width="98" height="98" viewBox="0 0 98 98" fill="none" xmlns="http://www.w3.org/2000/svg">
<path d="M49.0003 8.1665C43.638 8.1665 38.3282 9.22269 33.3741 11.2748C28.42 13.3268 23.9185 16.3346 20.1268 20.1263C12.4691 27.784 8.16699 38.1702 8.16699 48.9998C8.16699 59.8295 12.4691 70.2156 20.1268 77.8734C23.9185 81.6651 28.42 84.6729 33.3741 86.7249C38.3282 88.777 43.638 89.8332 49.0003 89.8332C59.83 89.8332 70.2161 85.5311 77.8738 77.8734C85.5316 70.2156 89.8336 59.8295 89.8336 48.9998C89.8336 43.6375 88.7775 38.3277 86.7254 33.3736C84.6733 28.4195 81.6656 23.918 77.8738 20.1263C74.0821 16.3346 69.5807 13.3268 64.6266 11.2748C59.6724 9.22269 54.3626 8.1665 49.0003 8.1665ZM66.1503 66.1498L44.917 53.0832V28.5832H51.042V49.8165L69.417 60.8415L66.1503 66.1498Z" fill="#171717"/>
</svg>
