<svg width="32" height="32" viewBox="0 0 32 32" fill="none" xmlns="http://www.w3.org/2000/svg">
<path d="M19.9997 24.4C19.3997 24.4 18.9997 24.2 18.3997 24L15.9997 23L13.5997 24C13.1997 24.2 12.5997 24.4 11.9997 24.4C11.5997 24.4 11.3997 24.4 10.9997 24.2L9.9997 32L15.9997 28L21.9997 32L20.7997 24.2C20.5997 24.4 20.1997 24.4 19.9997 24.4ZM25.7997 11.8C25.5997 11.4 25.5997 10.8 25.7997 10.4L26.9997 8C27.3997 7.2 26.9997 6.2 25.9997 5.8L23.3997 4.8C22.9997 4.6 22.5997 4.2 22.3997 3.8L21.3997 1.2C21.1997 0.4 20.5997 0 19.9997 0C19.7997 0 19.3997 0 19.1997 0.2L16.5997 1.4H15.9997C15.7997 1.4 15.5997 1.4 15.3997 1.2L12.7997 0.2C12.5997 0 12.1997 0 11.9997 0C11.3997 0 10.7997 0.4 10.3997 1L9.39969 3.8C9.39969 4.2 8.9997 4.6 8.5997 4.8L5.7997 5.8C4.9997 6 4.5997 7 4.9997 8L6.1997 10.6C6.3997 11 6.3997 11.6 6.1997 12L4.9997 14.4C4.5997 15.2 4.9997 16.2 5.9997 16.6L8.5997 17.6C8.9997 17.8 9.3997 18.2 9.5997 18.6L10.5997 21.2C10.7997 22 11.3997 22.4 11.9997 22.4C12.1997 22.4 12.3997 22.4 12.5997 22.2L15.1997 21C15.3997 21 15.5997 20.8 15.7997 20.8C15.9997 20.8 16.1997 20.8 16.3997 21L18.9997 22.2C19.1997 22.4 19.3997 22.4 19.5997 22.4C20.1997 22.4 20.7997 22 21.1997 21.4L22.1997 18.8C22.3997 18.4 22.7997 18 23.1997 17.8L25.7997 16.8C26.5997 16.4 27.1997 15.4 26.7997 14.6L25.7997 11.8ZM15.9997 19.2C11.5997 19.2 7.9997 15.6 7.9997 11.2C7.9997 6.8 11.5997 3.2 15.9997 3.2C20.3997 3.2 23.9997 6.8 23.9997 11.2C23.9997 15.6 20.3997 19.2 15.9997 19.2Z" fill="#171717"/>
<path d="M22 11.2002C22 12.7915 21.3679 14.3176 20.2426 15.4428C19.1174 16.5681 17.5913 17.2002 16 17.2002C14.4087 17.2002 12.8826 16.5681 11.7574 15.4428C10.6321 14.3176 10 12.7915 10 11.2002C10 9.6089 10.6321 8.08277 11.7574 6.95755C12.8826 5.83234 14.4087 5.2002 16 5.2002C17.5913 5.2002 19.1174 5.83234 20.2426 6.95755C21.3679 8.08277 22 9.6089 22 11.2002Z" fill="#171717"/>
</svg>
