<svg width="98" height="98" viewBox="0 0 98 98" fill="none" xmlns="http://www.w3.org/2000/svg">
<path d="M63.2917 57.1667L83.7083 77.5833L77.5833 83.7083L57.1667 63.2917V60.0658L56.0642 58.9225C51.2624 63.0628 45.1319 65.3382 38.7917 65.3333C31.7524 65.3333 25.0014 62.537 20.0239 57.5595C15.0463 52.5819 12.25 45.831 12.25 38.7917C12.25 31.7524 15.0463 25.0014 20.0239 20.0239C25.0014 15.0463 31.7524 12.25 38.7917 12.25C45.831 12.25 52.5819 15.0463 57.5595 20.0239C62.537 25.0014 65.3333 31.7524 65.3333 38.7917C65.3333 45.3658 62.9242 51.4092 58.9225 56.0642L60.0658 57.1667H63.2917ZM38.7917 18.375L36.5458 18.4975C35.5658 20.6208 34.055 24.2142 32.9525 28.5833H44.6308C43.5283 24.2142 42.0175 20.6208 41.0375 18.4975C40.3025 18.375 39.5675 18.375 38.7917 18.375ZM56.4725 28.5833C54.045 24.3343 50.1558 21.1126 45.5292 19.5183C46.5092 21.6825 47.775 24.8267 48.7142 28.5833H56.4725ZM21.1108 28.5833H28.8692C29.8083 24.8267 31.0742 21.6825 32.0542 19.5183C27.4276 21.1126 23.5383 24.3343 21.1108 28.5833ZM18.375 38.7917C18.375 40.8333 18.7017 42.9975 19.3142 44.9167H28.0525L27.5625 38.7917L28.0525 32.6667H19.3142C18.7017 34.5858 18.375 36.75 18.375 38.7917ZM58.2692 44.9167C58.8817 42.9975 59.2083 40.8333 59.2083 38.7917C59.2083 36.75 58.8817 34.5858 58.2692 32.6667H49.5308C50.1796 36.7242 50.1796 40.8591 49.5308 44.9167H58.2692ZM32.1358 32.6667L31.6458 38.7917L32.1358 44.9167H45.4475C46.0963 40.8591 46.0963 36.7242 45.4475 32.6667H32.1358ZM38.7917 59.2083C39.5267 59.2083 40.2617 59.2083 40.9558 59.0858C41.9767 56.9625 43.5283 53.3692 44.6308 49H32.9525C34.055 53.3692 35.6067 56.9625 36.6275 59.0858L38.7917 59.2083ZM56.4725 49H48.7142C47.775 52.7567 46.5092 55.9008 45.5292 58.065C50.1558 56.4708 54.045 53.249 56.4725 49ZM21.1108 49C23.5383 53.249 27.4276 56.4708 32.0542 58.065C31.0742 55.9008 29.8083 52.7567 28.8692 49H21.1108Z" fill="#171717"/>
</svg>
