<svg width="213" height="56" viewBox="0 0 213 56" fill="none" xmlns="http://www.w3.org/2000/svg">
<path d="M10.1877 5.09387C10.1877 7.85912 7.85912 10.1877 5.09387 10.1877C2.32863 10.1877 0 7.85912 0 5.09387C0 2.32863 2.32863 0 5.09387 0C7.85912 0 10.1877 2.32863 10.1877 5.09387Z" fill="#171717"/>
<path d="M30.4182 5.09387C30.4182 7.85912 28.0896 10.1877 25.3243 10.1877C22.5591 10.1877 20.2305 7.85912 20.2305 5.09387C20.2305 2.32863 22.5591 0 25.3243 0C28.0896 0 30.4182 2.32863 30.4182 5.09387Z" fill="#171717"/>
<path d="M50.5022 5.09387C50.5022 7.85912 48.1736 10.1877 45.4083 10.1877C42.6431 10.1877 40.3145 7.85912 40.3145 5.09387C40.3145 2.32863 42.6431 0 45.4083 0C48.1736 0 50.5022 2.32863 50.5022 5.09387Z" fill="#171717"/>
<path d="M70.7317 5.09387C70.7317 7.85912 68.4031 10.1877 65.6378 10.1877C62.8726 10.1877 60.5439 7.85912 60.5439 5.09387C60.5439 2.32863 62.8726 0 65.6378 0C68.4031 0 70.7317 2.32863 70.7317 5.09387Z" fill="#171717"/>
<path d="M90.9622 5.09387C90.9622 7.85912 88.6335 10.1877 85.8683 10.1877C83.103 10.1877 80.7744 7.85912 80.7744 5.09387C80.7744 2.32863 83.103 0 85.8683 0C88.6335 0 90.9622 2.32863 90.9622 5.09387Z" fill="#171717"/>
<path d="M111.046 5.09387C111.046 7.85912 108.718 10.1877 105.952 10.1877C103.187 10.1877 100.858 7.85912 100.858 5.09387C100.858 2.32863 103.187 0 105.952 0C108.718 0 111.046 2.32863 111.046 5.09387Z" fill="#171717"/>
<path d="M131.277 5.09387C131.277 7.85912 128.948 10.1877 126.183 10.1877C123.417 10.1877 121.089 7.85912 121.089 5.09387C121.089 2.32863 123.417 0 126.183 0C128.948 0 131.277 2.32863 131.277 5.09387Z" fill="#171717"/>
<path d="M151.506 5.09387C151.506 7.85912 149.177 10.1877 146.412 10.1877C143.647 10.1877 141.318 7.85912 141.318 5.09387C141.318 2.32863 143.647 0 146.412 0C149.177 0 151.506 2.32863 151.506 5.09387Z" fill="#171717"/>
<path d="M171.591 5.09387C171.591 7.85912 169.262 10.1877 166.497 10.1877C163.732 10.1877 161.403 7.85912 161.403 5.09387C161.403 2.32863 163.732 0 166.497 0C169.408 0 171.591 2.32863 171.591 5.09387Z" fill="#171717"/>
<path d="M191.821 5.09387C191.821 7.85912 189.492 10.1877 186.727 10.1877C183.961 10.1877 181.633 7.85912 181.633 5.09387C181.633 2.32863 183.961 0 186.727 0C189.492 0 191.821 2.32863 191.821 5.09387Z" fill="#171717"/>
<path d="M212.051 5.09387C212.051 7.85912 209.722 10.1877 206.957 10.1877C204.192 10.1877 201.863 7.85912 201.863 5.09387C201.863 2.32863 204.192 0 206.957 0C209.722 0 212.051 2.32863 212.051 5.09387Z" fill="#171717"/>
<path d="M10.1877 27.507C10.1877 30.2722 7.85912 32.6008 5.09387 32.6008C2.32863 32.6008 0 30.2722 0 27.507C0 24.7417 2.32863 22.4131 5.09387 22.4131C7.85912 22.4131 10.1877 24.5962 10.1877 27.507Z" fill="#171717"/>
<path d="M30.4182 27.507C30.4182 30.2722 28.0896 32.6008 25.3243 32.6008C22.5591 32.6008 20.2305 30.2722 20.2305 27.507C20.2305 24.7417 22.5591 22.4131 25.3243 22.4131C28.0896 22.4131 30.4182 24.5962 30.4182 27.507Z" fill="#171717"/>
<path d="M50.5022 27.507C50.5022 30.2722 48.1736 32.6008 45.4083 32.6008C42.6431 32.6008 40.3145 30.2722 40.3145 27.507C40.3145 24.7417 42.6431 22.4131 45.4083 22.4131C48.1736 22.4131 50.5022 24.5962 50.5022 27.507Z" fill="#171717"/>
<path d="M70.7317 27.507C70.7317 30.2722 68.4031 32.6008 65.6378 32.6008C62.8726 32.6008 60.5439 30.2722 60.5439 27.507C60.5439 24.7417 62.8726 22.4131 65.6378 22.4131C68.4031 22.4131 70.7317 24.5962 70.7317 27.507Z" fill="#171717"/>
<path d="M90.9622 27.507C90.9622 30.2722 88.6335 32.6008 85.8683 32.6008C83.103 32.6008 80.7744 30.2722 80.7744 27.507C80.7744 24.7417 83.103 22.4131 85.8683 22.4131C88.6335 22.4131 90.9622 24.5962 90.9622 27.507Z" fill="#171717"/>
<path d="M111.046 27.507C111.046 30.2722 108.718 32.6008 105.952 32.6008C103.187 32.6008 100.858 30.2722 100.858 27.507C100.858 24.7417 103.187 22.4131 105.952 22.4131C108.718 22.4131 111.046 24.5962 111.046 27.507Z" fill="#171717"/>
<path d="M131.277 27.507C131.277 30.2722 128.948 32.6008 126.183 32.6008C123.417 32.6008 121.089 30.2722 121.089 27.507C121.089 24.7417 123.417 22.4131 126.183 22.4131C128.948 22.4131 131.277 24.5962 131.277 27.507Z" fill="#171717"/>
<path d="M151.506 27.507C151.506 30.2722 149.177 32.6008 146.412 32.6008C143.647 32.6008 141.318 30.2722 141.318 27.507C141.318 24.7417 143.647 22.4131 146.412 22.4131C149.177 22.4131 151.506 24.5962 151.506 27.507Z" fill="#171717"/>
<path d="M171.591 27.507C171.591 30.2722 169.262 32.6008 166.497 32.6008C163.732 32.6008 161.403 30.2722 161.403 27.507C161.403 24.7417 163.732 22.4131 166.497 22.4131C169.408 22.4131 171.591 24.5962 171.591 27.507Z" fill="#171717"/>
<path d="M191.821 27.507C191.821 30.2722 189.492 32.6008 186.727 32.6008C183.961 32.6008 181.633 30.2722 181.633 27.507C181.633 24.7417 183.961 22.4131 186.727 22.4131C189.492 22.4131 191.821 24.5962 191.821 27.507Z" fill="#171717"/>
<path d="M212.051 27.507C212.051 30.2722 209.722 32.6008 206.957 32.6008C204.192 32.6008 201.863 30.2722 201.863 27.507C201.863 24.7417 204.192 22.4131 206.957 22.4131C209.722 22.4131 212.051 24.5962 212.051 27.507Z" fill="#171717"/>
<path d="M10.1877 49.9202C10.1877 52.6854 7.85912 55.014 5.09387 55.014C2.32863 55.014 0 52.6854 0 49.9202C0 47.1549 2.32863 44.8263 5.09387 44.8263C7.85912 44.6808 10.1877 47.0094 10.1877 49.9202Z" fill="#171717"/>
<path d="M30.4182 49.92C30.4182 52.6853 28.0896 55.0139 25.3243 55.0139C22.5591 55.0139 20.2305 52.6853 20.2305 49.92C20.2305 47.1548 22.5591 44.8262 25.3243 44.8262C28.0896 44.8262 30.4182 47.0093 30.4182 49.92Z" fill="#171717"/>
<path d="M50.5022 49.9202C50.5022 52.6854 48.1736 55.014 45.4083 55.014C42.6431 55.014 40.3145 52.6854 40.3145 49.9202C40.3145 47.1549 42.6431 44.8263 45.4083 44.8263C48.1736 44.6808 50.5022 47.0094 50.5022 49.9202Z" fill="#171717"/>
<path d="M70.7317 49.9202C70.7317 52.6854 68.4031 55.014 65.6378 55.014C62.8726 55.014 60.5439 52.6854 60.5439 49.9202C60.5439 47.1549 62.8726 44.8263 65.6378 44.8263C68.4031 44.6808 70.7317 47.0094 70.7317 49.9202Z" fill="#171717"/>
<path d="M90.9622 49.92C90.9622 52.6853 88.6335 55.0139 85.8683 55.0139C83.103 55.0139 80.7744 52.6853 80.7744 49.92C80.7744 47.1548 83.103 44.8262 85.8683 44.8262C88.6335 44.8262 90.9622 47.0093 90.9622 49.92Z" fill="#171717"/>
<path d="M111.046 49.92C111.046 52.6853 108.718 55.0139 105.952 55.0139C103.187 55.0139 100.858 52.6853 100.858 49.92C100.858 47.1548 103.187 44.8262 105.952 44.8262C108.718 44.8262 111.046 47.0093 111.046 49.92Z" fill="#171717"/>
<path d="M131.277 49.92C131.277 52.6853 128.948 55.0139 126.183 55.0139C123.417 55.0139 121.089 52.6853 121.089 49.92C121.089 47.1548 123.417 44.8262 126.183 44.8262C128.948 44.8262 131.277 47.0093 131.277 49.92Z" fill="#171717"/>
<path d="M151.506 49.92C151.506 52.6853 149.177 55.0139 146.412 55.0139C143.647 55.0139 141.318 52.6853 141.318 49.92C141.318 47.1548 143.647 44.8262 146.412 44.8262C149.177 44.8262 151.506 47.0093 151.506 49.92Z" fill="#171717"/>
<path d="M171.591 49.9202C171.591 52.6854 169.262 55.014 166.497 55.014C163.732 55.014 161.403 52.6854 161.403 49.9202C161.403 47.1549 163.732 44.8263 166.497 44.8263C169.408 44.6808 171.591 47.0094 171.591 49.9202Z" fill="#171717"/>
<path d="M191.821 49.9202C191.821 52.6854 189.492 55.014 186.727 55.014C183.961 55.014 181.633 52.6854 181.633 49.9202C181.633 47.1549 183.961 44.8263 186.727 44.8263C189.492 44.6808 191.821 47.0094 191.821 49.9202Z" fill="#171717"/>
<path d="M212.051 49.9202C212.051 52.6854 209.722 55.014 206.957 55.014C204.192 55.014 201.863 52.6854 201.863 49.9202C201.863 47.1549 204.192 44.8263 206.957 44.8263C209.722 44.6808 212.051 47.0094 212.051 49.9202Z" fill="#171717"/>
</svg>
